<svg width="301" height="181" fill="none" xmlns="http://www.w3.org/2000/svg"><ellipse opacity=".2" cx="150.157" cy="171.26" rx="150.157" ry="9.74" fill="#98C3E8"/><path d="M250.397 142.781c-2.992-.748 1.87 8.417 4.676 13.093 2.129 3.741 6.546 3.273 6.546.935s-7.481-13.092-11.222-14.028Z" fill="url(#a)"/><path d="M272.404 143.695c-.13-3.082-7.543 4.178-11.232 8.193-2.985 3.101-1.286 7.205.957 6.542 2.242-.662 10.437-10.882 10.275-14.735Z" fill="url(#b)"/><path d="M261.597 139.64c-1.944-2.396-3.559 7.853-4.124 13.277-.544 4.269 3.269 6.548 4.673 4.678 1.404-1.869 1.88-14.961-.549-17.955Z" fill="url(#c)"/><path d="m51.672 168.799 1.403-5.144h-4.208l-6.546 8.417 9.351-3.273ZM23.617 172.072l3.74-3.273-3.272-2.338-10.287 5.611h9.82Z" fill="#6FCF97"/><path d="m111.524 65.93-2.806 6.546-1.403 1.87-4.676 1.403-.467-5.143 3.273-7.95 6.079 3.274Z" fill="#F2994A"/><path d="m125.551 68.735 1.403 1.87 3.741-1.87-1.871-3.273c-1.402-2.338-4.068-5.471-5.611-7.014-1.402-1.403-1.247-.467-1.402.468l2.805 3.74s-1.15.994-1.403 1.87c-.308 1.068-.146 1.88.468 2.806.504.761 1.87 1.403 1.87 1.403Z" fill="url(#d)"/><path d="m105.912 79.957 2.338 3.273 4.208-3.273c-1.247-1.403-3.741-4.302-3.741-4.676v-2.805c-.935.311-2.286 1.325-3.74.935-1.497-.401-2.182-1.87-2.806-2.805 0 0-.944.463-1.403.935-1.528 1.57-1.094 3.712 0 5.61 1.143 1.983 5.144 2.806 5.144 2.806Z" fill="url(#e)"/><path d="M130.695 68.735 148 85.5l-9.356 2.406-11.69-17.3 3.741-1.87Z" fill="url(#f)"/><path d="M159.218 76.684c-1.496-3.367 4.053-8.26 7.014-10.287l12.625 14.963-6.079 7.949-4.676 10.287-7.481-10.287 2.805-6.079c-.779-.779-2.712-3.18-4.208-6.546Z" fill="url(#g)"/><path d="m27.358 168.331-3.273-1.87 47.226-46.291h36.939l7.949 15.43-48.629 8.884-40.212 23.847Z" fill="url(#h)"/><path opacity=".2" d="m114.5 135.5-47 9-8 4.5 14-28 41 14.5Z" fill="#000"/><path d="M127.889 110.818c-2.993 1.87-8.573 3.273-10.755 3.741l9.352 13.092 28.523-7.949 11.689-27.587-4.676-6.08c-2.026-.31-7.294-1.495-10.286-1.87-3.741-.467-21.977 5.612-25.25 5.612-2.619 0-10.443-6.547-14.028-9.82l-4.208 3.273c3.117 4.209 10.38 13 14.495 14.496 5.144 1.87 19.171-1.87 18.236 0-.935 1.87-9.352 10.754-13.092 13.092Z" fill="url(#i)"/><path opacity=".2" d="M146.5 99.5c-1.6 4-13.333 9.333-19 11.5 6-4 10.5-9.5 13.5-13 2.667-1 7.1-2.5 5.5 1.5Z" fill="#000"/><path d="M53.075 163.655h-4.208c4.364-17.612 14.215-52.837 18.704-52.837 4.489 0 34.913 2.494 49.564 3.741l7.949 10.286L104 134.5l-28.948-6.381-21.977 35.536Z" fill="url(#j)"/><path d="M114.33 169.266c-27.12 1.403-30.393-4.208-32.731-8.416-2.806-8.417 0-14.028 14.027-22.445 14.028-8.416 31.329-16.833 45.356-24.782 14.028-7.949 35.537-45.823 57.513-49.564 21.977-3.74 35.537 24.315 40.68 53.773 5.144 29.458-10.754 46.291-16.365 46.291-5.611 0-81.36 3.74-108.48 5.143Z" fill="url(#k)"/><path d="M166.231 76.684c-2.992-1.122-1.246-7.014 0-9.82 1.539-5.143 11.69-14.027 18.704-15.43 7.013-1.402 16.365 6.547 16.365 11.69s0 7.949 6.546 11.69c6.547 3.74 7.949 13.56.936 17.768-7.014 4.208-6.079.935-16.366 4.676-10.287 3.74-15.898 21.041-20.106 13.56-4.208-7.482 2.805-7.014-1.403-12.157-4.208-5.144 6.079-13.093 5.611-16.834-.468-3.74-6.546-3.74-10.287-5.143Z" fill="url(#l)"/><path fill="#5A98D0" d="M33.278 57.628H69.75v27.12H33.278z"/><g clip-path="url(#m)"><path d="M47.58 70.444a12.296 12.296 0 0 0 5.348 5.349l1.786-1.786a.807.807 0 0 1 .828-.195c.909.3 1.89.463 2.897.463.447 0 .812.365.812.812v2.832a.814.814 0 0 1-.812.812c-7.621 0-13.798-6.177-13.798-13.798 0-.447.365-.812.812-.812h2.84c.447 0 .812.365.812.812 0 1.014.163 1.988.463 2.897.09.285.024.601-.203.828l-1.786 1.786Z" fill="#fff"/></g><path fill="#5A98D0" d="M51.946 0h36.472v27.12H51.946z"/><g clip-path="url(#n)"><path d="M77.107 7.305H64.121c-.893 0-1.615.73-1.615 1.623l-.008 9.74c0 .893.73 1.623 1.623 1.623h12.986c.893 0 1.624-.73 1.624-1.623v-9.74c0-.893-.73-1.623-1.624-1.623Zm0 3.247-6.493 4.058-6.493-4.058V8.928l6.493 4.058 6.493-4.058v1.624Z" fill="#fff"/></g><path fill="#5A98D0" d="M124.184 0h36.472v27.12h-36.472z"/><g clip-path="url(#o)"><path d="M142.033 5.682c-4.481 0-8.109 3.636-8.109 8.116 0 4.48 3.628 8.117 8.109 8.117 4.488 0 8.125-3.636 8.125-8.117 0-4.48-3.637-8.116-8.125-8.116Zm5.625 4.87h-2.395a12.714 12.714 0 0 0-1.12-2.89 6.52 6.52 0 0 1 3.515 2.89Zm-5.617-3.215a11.424 11.424 0 0 1 1.55 3.215h-3.1c.349-1.161.876-2.24 1.55-3.215Zm-6.282 8.085a6.684 6.684 0 0 1-.211-1.624c0-.56.081-1.104.211-1.623h2.743a13.391 13.391 0 0 0-.114 1.623c0 .552.049 1.088.114 1.624h-2.743Zm.665 1.623h2.395a12.67 12.67 0 0 0 1.12 2.89 6.482 6.482 0 0 1-3.515-2.89Zm2.395-6.493h-2.395a6.481 6.481 0 0 1 3.515-2.89c-.487.901-.861 1.875-1.12 2.89Zm3.222 9.707a11.424 11.424 0 0 1-1.55-3.214h3.1a11.424 11.424 0 0 1-1.55 3.214Zm1.899-4.837h-3.798a11.95 11.95 0 0 1-.13-1.624c0-.552.057-1.095.13-1.623h3.798c.073.527.13 1.071.13 1.623s-.057 1.088-.13 1.624Zm.203 4.512c.487-.9.86-1.875 1.12-2.89h2.395a6.52 6.52 0 0 1-3.515 2.89Zm1.437-4.512c.065-.536.113-1.072.113-1.624s-.048-1.087-.113-1.623h2.743c.13.52.211 1.063.211 1.623s-.081 1.104-.211 1.624h-2.743Z" fill="#fff"/></g><path d="M249.461 152.133c1.402-2.338 20.847-1.87 21.509 0 .661 1.87-.936 12.158-4.209 13.093-3.272.935-9.819 1.402-12.625 0-2.806-1.403-6.078-10.755-4.675-13.093Z" fill="#F2994A"/><defs><linearGradient id="a" x1="255.538" y1="142.738" x2="255.538" y2="158.624" gradientUnits="userSpaceOnUse"><stop stop-color="#6CEDA0"/><stop offset="1" stop-color="#199D56"/></linearGradient><linearGradient id="b" x1="273.901" y1="148.613" x2="258.665" y2="153.113" gradientUnits="userSpaceOnUse"><stop stop-color="#6CEDA0"/><stop offset="1" stop-color="#199D56"/></linearGradient><linearGradient id="c" x1="265.733" y1="142.693" x2="256.193" y2="155.395" gradientUnits="userSpaceOnUse"><stop stop-color="#6CEDA0"/><stop offset="1" stop-color="#199D56"/></linearGradient><linearGradient id="d" x1="132.021" y1="61.037" x2="121.327" y2="65.581" gradientUnits="userSpaceOnUse"><stop stop-color="#FFF8E1"/><stop offset="1" stop-color="#FFCC80"/></linearGradient><linearGradient id="e" x1="114.35" y1="73.846" x2="101.318" y2="81.906" gradientUnits="userSpaceOnUse"><stop stop-color="#FFF8E1"/><stop offset="1" stop-color="#FFCC80"/></linearGradient><linearGradient id="f" x1="138.996" y1="67.449" x2="137.852" y2="86.311" gradientUnits="userSpaceOnUse"><stop stop-color="#98D0FC"/><stop offset="1" stop-color="#3481D7"/></linearGradient><linearGradient id="g" x1="164" y1="71.5" x2="164.808" y2="84.327" gradientUnits="userSpaceOnUse"><stop stop-color="#FFF8E1"/><stop offset="1" stop-color="#FFCC80"/></linearGradient><linearGradient id="h" x1="42.5" y1="138" x2="78" y2="152" gradientUnits="userSpaceOnUse"><stop offset=".064" stop-color="#EB5757"/><stop offset="1" stop-color="#872727"/></linearGradient><linearGradient id="i" x1="121" y1="80" x2="146.847" y2="110.376" gradientUnits="userSpaceOnUse"><stop stop-color="#98D0FC"/><stop offset="1" stop-color="#3481D7"/></linearGradient><linearGradient id="j" x1="70" y1="108" x2="101" y2="142.5" gradientUnits="userSpaceOnUse"><stop stop-color="#EB5757"/><stop offset="1" stop-color="#872727"/></linearGradient><linearGradient id="k" x1="240" y1="117" x2="166.369" y2="114.12" gradientUnits="userSpaceOnUse"><stop stop-color="#FCF898"/><stop offset="1" stop-color="#D7BD34"/></linearGradient><linearGradient id="l" x1="189.008" y1="51.271" x2="189.008" y2="112.674" gradientUnits="userSpaceOnUse"><stop stop-color="#AF6CED"/><stop offset="1" stop-color="#5E199D"/></linearGradient><clipPath id="m"><path fill="#fff" transform="translate(42.206 61.686)" d="M0 0h19.48v19.48H0z"/></clipPath><clipPath id="n"><path fill="#fff" transform="translate(60.874 4.058)" d="M0 0h19.48v19.48H0z"/></clipPath><clipPath id="o"><path fill="#fff" transform="translate(132.301 4.058)" d="M0 0h19.48v19.48H0z"/></clipPath></defs></svg>