<svg width="132" height="127" fill="none" xmlns="http://www.w3.org/2000/svg"><path d="M125.67 61.124a58.408 58.408 0 0 1-5.321 24.384c-3.516 7.682-8.659 14.571-15.098 20.226a63.404 63.404 0 0 1-5.64 4.416 62.667 62.667 0 0 1-7.946 4.696h-.03c-.589.298-1.188.582-1.792.857a61.763 61.763 0 0 1-6.21 2.455c-1.45.466-2.94.932-4.442 1.314a65.253 65.253 0 0 1-26.582 1.206 61.113 61.113 0 0 1-3.113-.577l-.87-.191a63.767 63.767 0 0 1-12.044-4.011 64.146 64.146 0 0 1-2.72-1.3c-9.835-4.978-18.12-12.386-24.006-21.465C3.969 84.056.69 73.633.358 62.93.024 52.23 2.648 41.634 7.96 32.232c5.312-9.403 13.12-17.276 22.627-22.813 9.507-5.538 20.37-8.54 31.476-8.7C73.169.559 84.12 3.247 93.794 8.508c9.674 5.26 17.724 12.905 23.325 22.15 5.601 9.246 8.552 19.76 8.551 30.466Z" fill="url(#a)"/><path d="M79.423 65.494c3.992 3.96 15.62 19.37 15.62 19.37L87.9 94.959l-6.423-20.055-2.054-9.41Z" fill="url(#b)"/><path d="M91.636 114.878c-.59.299-1.19.583-1.793.858a61.451 61.451 0 0 1-6.21 2.455c-1.45.465-2.94.931-4.442 1.313a65.254 65.254 0 0 1-29.695.629c-3.77 2.506-7.25 4.626-9.555 5.59l.189-1.551.783-6.489 1.812-15.098 7.182-6.695-16.147 1.207s1.696-22.687 8.318-27.355c6.62-4.668 13.566-8.85 13.566-8.85a9.234 9.234 0 0 0 2.702 1.16c2.296.611 4.683.846 7.06.693 2.833-.125 5.665-2.664 5.8-2.795 0 0 4.447.853 8.217 5.562a22.013 22.013 0 0 1 3.968 8.134c.928 3.443 2.576 11.483 4.45 21.196 1.229 6.252 2.519 13.184 3.795 20.036Z" fill="url(#c)"/><path d="m95.043 84.882 6.892 7.785 24.238-23.19.918-4.747 4.834-4.048-2.151 6.172v8.04s-18.695 29.209-23.847 30.714c-6.026 1.766-18.017-10.659-18.017-10.659l7.133-10.067Z" fill="url(#d)"/><path d="m69.882 95.527 5.621 13.044 7.264-3.01-5.326-12.764-7.559 2.73Z" fill="#7E57C2"/><path d="M77.712 103.954c-.904.718-2.252.55-3.925.634a9.811 9.811 0 0 0-6.09 2.301c-2.247 1.822-8.53 6.587-14.813 10.938-1.14.787-2.28 1.565-3.383 2.329-3.77 2.507-7.25 4.626-9.555 5.591a5.92 5.92 0 0 1-1.933.545c-3.228.079-3.92-6.443-4.118-11.647-.063-1.728-.077-3.307-.111-4.448-.135-4.566 0-13.044 0-13.044l16.147-1.211-1.71 10.779-.3 1.906v.014l4.833-1.724.15-.051 17.157-6.145 1.184-1.97.754 1.863h.073l7.346-.932s.126 2.823-1.706 4.272Z" fill="url(#e)"/><path d="M74.005 35.968c-.42-1.108-.783-1.863-.89-2.087v-.056s-.372.886-3.175.671c-2.803-.214-3.73-1.556-3.73-1.556s.879 2.907-2.461 4.151c-3.214 1.202-4.48.424-4.567.368.169.177 2.682 2.767 1.015 4.822-1.726 2.129-5.607 1.71-5.607 1.71v.027a32.414 32.414 0 0 0 1.639 3.117c.319.53.633 1.02.966 1.477v.032a10.782 10.782 0 0 0 3.383 3.34c-.602 3.41-2.333 6.539-4.934 8.921.875.44 1.777.828 2.702 1.16 1.802.657 4.224 1.31 6.384 1.128 2.503-.258 4.816-1.408 6.486-3.224l-1.107-4.095-.995-3.69c8.999-2.212 6.524-11.837 4.89-16.216ZM68.61 52.32l.16-.038.256-.07a4.408 4.408 0 0 1-1.17.308c.208-.051.42-.107.643-.172l.111-.028Z" fill="url(#f)"/><path d="M79.423 33.704c-3.712 3.29-5.317 2.362-5.418 2.274v-.01c-.42-1.108-.783-1.863-.885-2.087l-.024-.056s-.377.886-3.18.671c-2.803-.214-3.726-1.556-3.726-1.556s.88 2.907-2.46 4.151c-3.22 1.202-4.485.424-4.568.368.17.172 2.683 2.763 1.015 4.817-1.725 2.129-5.606 1.714-5.606 1.714v.024a32.387 32.387 0 0 0 1.638 3.12c.322.529.645 1.021.967 1.477v.033s-1.324 2.511-3.688 2.46c-2.363-.051-2.416-2.33-2.416-2.33s-1.672 2.907-6.84.108c-5.166-2.8-1.72-6.858-1.72-6.858s-3.663-2.702-3.663-6.75 5.703-7.127 5.703-7.127-2.04-4.7 1.401-7.29c3.442-2.59 8.613-.835 8.613-.835s-.101-6.014 5.167-5.916c5.268.098 6.461 3.205 6.461 3.205s4.737-3.53 9.425-.205c4.688 3.326 2.76 9.126 2.76 9.126s4.915 4.048 1.044 7.472Z" fill="url(#g)"/><path opacity=".15" d="M70.148 55.86c-2.247-.685-6.244-3.298-6.244-3.298 1.577.16 3.171.079 4.722-.242l.16-.038.308-.088h.044l1.01 3.666ZM52.087 81.957l-2.18 13.975-1.71 10.78-3.983 3.191 8.665-3.033s-2.247-6.186-.792-24.913ZM49.487 120.133c1.029.219 2.063.41 3.112.578.053-.955.15-1.92.285-2.884l-3.397 2.306Z" fill="#000"/><defs><linearGradient id="a" x1="63.257" y1="7.272" x2="61.266" y2="126.33" gradientUnits="userSpaceOnUse"><stop stop-color="#fff" stop-opacity="0"/><stop offset="1" stop-color="#64B5F6" stop-opacity=".6"/></linearGradient><linearGradient id="b" x1="74.691" y1="61.492" x2="91.027" y2="91.274" gradientUnits="userSpaceOnUse"><stop stop-color="#E57373"/><stop offset="1" stop-color="#AD1457"/></linearGradient><linearGradient id="c" x1="26460" y1="36322.6" x2="24759.5" y2="45029.9" gradientUnits="userSpaceOnUse"><stop stop-color="#E57373"/><stop offset="1" stop-color="#AD1457"/></linearGradient><linearGradient id="d" x1="138.483" y1="72.258" x2="92.537" y2="99.873" gradientUnits="userSpaceOnUse"><stop stop-color="#FFF8E1"/><stop offset="1" stop-color="#FFCC80"/></linearGradient><linearGradient id="e" x1="20346.9" y1="20344.7" x2="17878.8" y2="18618.1" gradientUnits="userSpaceOnUse"><stop stop-color="#FFF8E1"/><stop offset="1" stop-color="#FFCC80"/></linearGradient><linearGradient id="f" x1="78.736" y1="40.712" x2="53.489" y2="51.5" gradientUnits="userSpaceOnUse"><stop stop-color="#FFF8E1"/><stop offset="1" stop-color="#FFCC80"/></linearGradient><linearGradient id="g" x1="72.879" y1="13.929" x2="44.405" y2="53.844" gradientUnits="userSpaceOnUse"><stop stop-color="#FFB74D"/><stop offset="1" stop-color="#F4511E"/></linearGradient></defs></svg>