<svg width="183" height="122" fill="none" xmlns="http://www.w3.org/2000/svg"><path d="M182.848 61.258c-.006 11.092-3.141 21.97-9.062 31.439-5.92 9.469-14.397 17.165-24.502 22.245-.592.302-1.193.591-1.798.87a60.49 60.49 0 0 1-6.13 2.454 59.616 59.616 0 0 1-4.384 1.312c-14.013 3.642-28.889 2.379-42.046-3.57a63.026 63.026 0 0 1-1.608-.759c-9.85-4.809-18.207-12.097-24.205-21.111-6-9.015-9.422-19.43-9.917-30.167-.494-10.738 1.959-21.41 7.105-30.913 5.146-9.503 12.8-17.493 22.168-23.144 9.37-5.651 20.115-8.758 31.127-9 11.011-.243 21.889 2.388 31.51 7.62 9.621 5.234 17.636 12.879 23.216 22.146 5.58 9.267 8.524 19.82 8.526 30.568v.01Z" fill="url(#a)"/><path d="m96.743 98.518-6.83-10.414s18.923-21.349 20.817-22.61c0 0-9.546 15.627-13.987 33.024Z" fill="url(#b)"/><path d="m89.912 88.104-12.88 11.173-23.694-11.173-18.127.969s11.291 3.724 14.468 3.57l3.182-.153s19.458 18.309 23.933 19.705c4.474 1.397 19.172-9.552 19.172-9.552l.854-4.092-6.908-10.447Z" fill="url(#c)"/><path d="M125.451 62.966a17.812 17.812 0 0 1-5.691 1.601c-2.285.336-5.758-.903-5.758-.903 2.624-2.015 2.014-6.768 2.014-6.768l.057-.028c2.8-.21 5.142-1.76 6.778-3.259-.591 4.069 2.6 9.357 2.6 9.357Z" fill="url(#d)"/><path d="M125.451 47.827v2.794a17.166 17.166 0 0 1-2.595 2.974c-1.636 1.504-3.978 3.054-6.778 3.259a8.78 8.78 0 0 1-3.74-.535c-7.633-2.794-2.266-17.574-2.266-17.574 2.423-6.015 13.395-3.105 13.395-3.105 1.469 1.708 1.751 6.48 1.693 6.946a9.027 9.027 0 0 1-.954 1.862s2.085-1.918 2.8-.643c.716 1.276-1.555 4.022-1.555 4.022Z" fill="url(#e)"/><path d="M125.451 50.63v-2.793s2.266-2.724 1.551-4.009c-.716-1.284-2.8.643-2.8.643a9.127 9.127 0 0 0 .954-1.862c.057-.466-.182-4.967-1.694-6.946 0 0-10.972-2.91-13.395 3.105 0 0-3.139-.777-5.844-4.422-4.422-5.964.859-6.694 6.092-5.545 6.349 1.397 12.713-3.184 19.988 1.472 7.275 4.655.753 15.236-4.852 20.357Z" fill="#262F72"/><g filter="url(#f)"><path d="M75.515 24.64H13.62c-1.496 0-2.71 1.183-2.71 2.644v55.695c0 1.46 1.214 2.644 2.71 2.644h61.895c1.497 0 2.71-1.184 2.71-2.644V27.284c0-1.46-1.213-2.644-2.71-2.644Z" fill="#fff"/></g><path d="M21.22 35.691c-.172.19-.393.331-.64.41a2.74 2.74 0 0 1-.916.144 1.853 1.853 0 0 1-.925-.223 1.513 1.513 0 0 1-.616-.652 2.252 2.252 0 0 1-.224-1.006v-.27a2.392 2.392 0 0 1 .205-1.028c.124-.276.33-.508.592-.666a1.99 1.99 0 0 1 2.037.107c.284.254.456.607.477.982h-.816a.784.784 0 0 0-.248-.498.805.805 0 0 0-.525-.158.76.76 0 0 0-.653.312 1.616 1.616 0 0 0-.224.93v.252c-.021.328.064.653.243.931a.852.852 0 0 0 .71.321.97.97 0 0 0 .673-.195V34.7h-.763v-.601h1.603l.01 1.592Z" fill="#64B5F6"/><path d="M70.268 32.167H26.41a.957.957 0 0 0-.969.945v3.436c0 .522.434.945.969.945h43.858a.957.957 0 0 0 .968-.945v-3.436a.957.957 0 0 0-.968-.945Z" fill="#E7EEF2"/><path d="M71.236 40.5H25.441v.931h45.795V40.5Z" fill="#BBDEFB"/><path d="M71.236 42.595H25.441v.93h45.795v-.93ZM71.236 44.69H25.441v.93h45.795v-.93ZM71.236 46.785H25.441v.93h45.795v-.93Z" fill="#E7E8E9"/><path d="M71.236 50.704H25.441v.931h45.795v-.93Z" fill="#BBDEFB"/><path d="M71.236 52.8H25.441v.93h45.795v-.93ZM71.236 54.894H25.441v.931h45.795v-.931ZM71.236 56.989H25.441v.93h45.795v-.93Z" fill="#E7E8E9"/><path d="M71.236 60.792H25.441v.931h45.795v-.93Z" fill="#BBDEFB"/><path d="M71.236 62.887H25.441v.931h45.795v-.931ZM71.236 64.982H25.441v.931h45.795v-.931ZM71.236 67.077H25.441v.93h45.795v-.93Z" fill="#E7E8E9"/><path d="M71.236 70.88H25.441v.931h45.795v-.931Z" fill="#BBDEFB"/><path d="M71.236 72.975H25.441v.93h45.795v-.93ZM71.236 75.07H25.441V76h45.795v-.93ZM71.236 77.165H25.441v.93h45.795v-.93Z" fill="#E7E8E9"/><path d="M141.952 85.456c3.263 9.478 5.681 20.45 7.332 29.486-.592.302-1.193.591-1.798.87a60.49 60.49 0 0 1-6.13 2.454 58.99 58.99 0 0 1-4.384 1.312c-14.012 3.642-28.889 2.379-42.046-3.57a62.866 62.866 0 0 1-1.608-.759 1619.204 1619.204 0 0 1 4.942-23.886c2.734-12.704 6.655-19.622 9.894-23.37l.034-.036a19.831 19.831 0 0 1 1.994-2.002.388.388 0 0 1 .066-.06c.162-.14.325-.27.477-.396 1.951-1.55 3.278-1.834 3.278-1.834l.119.041h.067a12.72 12.72 0 0 0 3.229.778h.215c.707.066 1.418.077 2.127.032h.043a13.817 13.817 0 0 0 5.62-1.582 20.647 20.647 0 0 1 5.672 2.853c4.932 3.534 14.869 16.49 14.869 16.49l-4.012 3.179Z" fill="url(#g)"/><path d="M160.122 103.145c-.029 1.295-1.236 3.92-3.001 7.104a61.624 61.624 0 0 1-7.842 4.693c-.592.302-1.193.591-1.798.87a60.49 60.49 0 0 1-6.13 2.454l4.608-14.334-11.926-12.22 7.914-6.256 4.012-3.17s14.287 15.855 14.163 20.859Z" fill="url(#h)"/><defs><linearGradient id="a" x1="121.245" y1="7.453" x2="119.23" y2="126.433" gradientUnits="userSpaceOnUse"><stop stop-color="#fff" stop-opacity="0"/><stop offset="1" stop-color="#64B5F6" stop-opacity=".6"/></linearGradient><linearGradient id="b" x1="101.824" y1="63.278" x2="98.415" y2="95.533" gradientUnits="userSpaceOnUse"><stop stop-color="#42A5F5"/><stop offset="1" stop-color="#1565C0"/></linearGradient><linearGradient id="c" x1="60.541" y1="97.219" x2="100.101" y2="102.592" gradientUnits="userSpaceOnUse"><stop stop-color="#FFE082"/><stop offset="1" stop-color="#FFA726"/></linearGradient><linearGradient id="d" x1="8898.78" y1="2327.97" x2="8901.43" y2="2118.66" gradientUnits="userSpaceOnUse"><stop stop-color="#FFE082"/><stop offset="1" stop-color="#FFA726"/></linearGradient><linearGradient id="e" x1="14160.6" y1="3728.4" x2="14909.9" y2="3728.4" gradientUnits="userSpaceOnUse"><stop stop-color="#FFE082"/><stop offset="1" stop-color="#FFA726"/></linearGradient><linearGradient id="g" x1="40576.6" y1="13813.8" x2="45975.7" y2="19174.5" gradientUnits="userSpaceOnUse"><stop stop-color="#42A5F5"/><stop offset="1" stop-color="#1565C0"/></linearGradient><linearGradient id="h" x1="21739.8" y1="11218.5" x2="21382.1" y2="8911.55" gradientUnits="userSpaceOnUse"><stop stop-color="#FFE082"/><stop offset="1" stop-color="#FFA726"/></linearGradient><filter id="f" x=".911" y="18.64" width="87.314" height="80.984" filterUnits="userSpaceOnUse" color-interpolation-filters="sRGB"><feFlood flood-opacity="0" result="BackgroundImageFix"/><feColorMatrix in="SourceAlpha" values="0 0 0 0 0 0 0 0 0 0 0 0 0 0 0 0 0 0 127 0" result="hardAlpha"/><feOffset dy="4"/><feGaussianBlur stdDeviation="5"/><feColorMatrix values="0 0 0 0 0 0 0 0 0 0 0 0 0 0 0 0 0 0 0.15 0"/><feBlend in2="BackgroundImageFix" result="effect1_dropShadow_1:1130"/><feBlend in="SourceGraphic" in2="effect1_dropShadow_1:1130" result="shape"/></filter></defs></svg>