<svg width="435" height="480" fill="none" xmlns="http://www.w3.org/2000/svg"><g opacity=".6"><g clip-path="url(#a)"><path d="M54.575 447.77v-13.813h9.702v13.813h12.127v-18.417h7.277l-24.255-20.72-24.256 20.72h7.277v18.417h12.128Z" fill="#fff"/></g><path d="M144.245 429.353c0 44.27-37.85 80.377-84.82 80.377-46.968 0-84.819-36.107-84.819-80.377 0-44.27 37.85-80.378 84.82-80.378 46.969 0 84.819 36.108 84.819 80.378Z" stroke="#fff" stroke-width="5"/><path d="M125.128 119.712c0 20.378-17.421 36.986-39.022 36.986-21.6 0-39.021-16.608-39.021-36.986 0-20.378 17.42-36.986 39.021-36.986s39.022 16.608 39.022 36.986ZM433.17 219.856c0 20.378-17.42 36.986-39.021 36.986-21.6 0-39.021-16.608-39.021-36.986 0-20.378 17.421-36.986 39.021-36.986 21.601 0 39.021 16.608 39.021 36.986ZM217.298 269.353c0 20.378-17.421 36.985-39.021 36.985-21.601 0-39.022-16.607-39.022-36.985s17.421-36.986 39.022-36.986c21.6 0 39.021 16.608 39.021 36.986ZM405.276 413.237c0 20.378-17.42 36.986-39.021 36.986s-39.021-16.608-39.021-36.986c0-20.378 17.42-36.985 39.021-36.985s39.021 16.607 39.021 36.985Z" stroke="#fff" stroke-width="2"/><path d="m67.915 349.928 14.553-193.381M144.319 436.259l184.341-12.662M107.936 362.59l54.575-59.856M137.042 397.698l230.426-149.065" stroke="#fff" stroke-width="2" stroke-linecap="round"/></g><defs><clipPath id="a"><path fill="#fff" transform="translate(30.32 401.727)" d="M0 0h58.213v55.252H0z"/></clipPath></defs></svg>