<svg width="14" height="16" viewBox="0 0 14 16" fill="none" xmlns="http://www.w3.org/2000/svg">
<path d="M12.4822 12.4768L9.57478 11.0874C9.30056 10.9562 9.13013 10.6927 9.13013 10.3994V9.41585C9.19983 9.3344 9.27317 9.2416 9.34896 9.1392C9.72604 8.63011 10.0283 8.06342 10.248 7.45222C10.6774 7.264 10.9562 6.85818 10.9562 6.4V5.23636C10.9562 4.95622 10.8467 4.6848 10.6519 4.47273V2.92538C10.6689 2.76538 10.7359 1.81295 10.0152 1.0272C9.39004 0.3456 8.37565 0 6.9997 0C5.62374 0 4.60935 0.3456 3.98422 1.02691C3.26352 1.81265 3.33048 2.76538 3.34752 2.92509V4.47244C3.15274 4.68451 3.04317 4.95593 3.04317 5.23607V6.39971C3.04317 6.75375 3.21148 7.08393 3.49878 7.30415C3.77756 8.35927 4.361 9.15433 4.56491 9.40945V10.3721C4.56491 10.6537 4.40422 10.912 4.14583 11.047L1.43074 12.4625C0.54813 12.9228 0 13.8054 0 14.7665V16H14V14.8239C13.9997 13.8237 13.4181 12.9242 12.4822 12.4768Z" fill="black"/>
</svg>
