<svg width="14" height="16" viewBox="0 0 14 16" fill="none" xmlns="http://www.w3.org/2000/svg">
<path d="M13.3636 5.71429H12.7272V5.14285C12.7272 2.30253 10.1631 0 6.99998 0C3.8369 0 1.27271 2.30253 1.27271 5.14285V5.71429H0.636375C0.284909 5.71429 0 5.97013 0 6.28573V15.4286C0 15.7442 0.284909 16 0.636375 16H13.3636C13.7151 16 14 15.7442 14 15.4286V6.2857C14 5.97013 13.7151 5.71429 13.3636 5.71429ZM8.79989 10.85C8.60768 11.3383 8.18004 11.7223 7.63636 11.8949V13.1429C7.63636 13.4585 7.35145 13.7143 6.99998 13.7143C6.64852 13.7143 6.36361 13.4585 6.36361 13.1429V11.8949C5.36954 11.5793 4.8486 10.5998 5.20007 9.70717C5.55153 8.81454 6.64229 8.34676 7.63636 8.66236C8.63043 8.97796 9.15136 9.95741 8.79989 10.85ZM11.4545 5.71429H2.54546V5.14285C2.54546 2.9337 4.53983 1.14285 7.00002 1.14285C9.46021 1.14285 11.4545 2.9337 11.4545 5.14285V5.71429Z" fill="black"/>
</svg>
