<svg width="370" height="100" viewBox="0 0 370 100" fill="none" xmlns="http://www.w3.org/2000/svg">
<path d="M120.032 11.3292C127.193 8.92061 127.783 0 120.683 0C118.74 0 116.407 1.35791 114.794 4.13321L105.16 20.5471C104.765 21.2483 104.306 21.9119 103.788 22.5295C101.324 19.1793 102.045 14.154 105.5 11.9536L104.158 10.1794C96.6874 14.8875 98.8807 28.4865 111.349 28.4865C121.955 28.4865 126.892 15.8589 120.032 11.3292ZM111.229 25.7706C109.438 25.8144 107.667 25.3941 106.091 24.5515C106.752 23.7638 107.348 22.9252 107.874 22.0438L113.883 11.7653L114.884 11.8644C123.187 13.599 119.862 25.7706 111.229 25.7706ZM115.065 9.70364L117.949 4.81713C120.553 0.376648 123.878 2.98345 122.095 6.3039C120.723 8.85122 118.7 9.63426 115.065 9.70364Z" fill="white"/>
<path d="M259.598 18.8324L259.358 19.1099C257.634 21.2678 255.398 22.9703 252.848 24.0658C253.429 23.1539 253.85 22.1727 254.321 21.4194L258.256 14.7388C261.581 9.14859 256.203 7.28517 252.568 10.5065L253.289 9.28735H249.724L244.156 18.8324L243.915 19.1C243.24 19.8684 242.417 20.4949 241.493 20.9427C240.569 21.3905 239.564 21.6503 238.537 21.7068L241.892 15.9778C244.045 12.2807 242.062 8.79176 238.707 8.79176C235.963 8.79176 233.84 9.87215 231.787 13.4007L230.035 16.4238L228.572 18.8324L228.382 19.0505C225.808 22.024 223.315 24.3434 221.732 24.3434C220.941 24.3434 220.501 23.7982 221.322 22.4106L226.459 13.4899C228.002 10.8138 226.529 8.88097 224.547 8.88097C223.004 8.88097 221.352 9.72347 219.539 11.5571L225.228 1.75439H221.662L211.758 18.8324L211.557 19.0604C210.317 20.5164 208.889 21.8059 207.311 22.8962C208.443 19.5361 208.212 14.382 210.396 9.87215L207.722 8.44485C206.249 10.4272 203.035 15.056 199.81 18.7928L199.57 19.0604C197.006 22.0339 194.502 24.3533 192.93 24.3533C192.139 24.3533 191.688 23.8081 192.509 22.4205L196.074 16.2454C197.306 14.1045 196.725 12.8556 195.564 11.4679L193.561 9.08912C193.437 8.94834 193.344 8.78398 193.286 8.60615C193.229 8.42833 193.209 8.2408 193.228 8.05511C193.247 7.86941 193.304 7.68949 193.395 7.52639C193.487 7.3633 193.611 7.22049 193.761 7.10676L191.908 5.1244C189.905 6.91843 189.715 8.92062 190.987 10.5461L191.287 10.903C189.705 13.1133 187.582 16.0967 185.278 18.8324L185.038 19.1C182.464 22.0736 179.179 24.3929 176.676 24.3929C174.482 24.3929 173.181 23.035 174.823 20.1903L175.163 19.5758C177.467 20.567 181.783 20.0813 184.457 15.502L184.968 14.6199C186.881 11.3688 185.038 8.93053 182.124 8.93053C180.741 8.9355 179.386 9.31736 178.207 10.0342C177.029 10.7511 176.073 11.7752 175.444 12.9944L171.959 18.8324L171.748 19.0703C171.075 19.8438 170.251 20.4744 169.325 20.9241C168.399 21.3738 167.39 21.6333 166.36 21.687L169.725 15.9481C170.508 14.7297 170.966 13.3351 171.057 11.8942C171.084 11.4708 171.019 11.0466 170.867 10.6502C170.714 10.2537 170.478 9.89412 170.173 9.59557C169.869 9.29702 169.503 9.06641 169.101 8.91922C168.699 8.77203 168.27 8.71168 167.843 8.7422C167.003 8.76253 166.189 9.03567 165.509 9.52523L170.036 1.75439H166.401L156.406 18.8324L156.225 19.0405C153.652 22.0141 151.148 24.3334 149.576 24.3334C148.784 24.3334 148.344 23.7883 149.165 22.4006L152.73 16.2256C153.962 14.0946 153.381 12.8358 152.21 11.4481L150.207 9.06929C150.085 8.92727 149.993 8.76226 149.938 8.58424C149.882 8.40622 149.863 8.21889 149.883 8.03358C149.903 7.84827 149.96 7.66883 150.052 7.50612C150.144 7.34341 150.268 7.20081 150.417 7.08694L148.564 5.10458C146.561 6.89861 146.371 8.90079 147.633 10.5362L147.943 10.9426C146.371 13.143 144.248 16.1265 141.934 18.872L141.694 19.1397C139.13 22.1132 136.626 24.4326 135.054 24.4326C134.263 24.4326 133.812 23.8874 134.634 22.4998L140.392 12.5285H138.389C138.383 12.0473 138.28 11.5722 138.088 11.1303C137.895 10.6883 137.617 10.2883 137.268 9.95316C136.919 9.618 136.507 9.35427 136.055 9.17709C135.603 8.9999 135.12 8.91275 134.634 8.92062C132.721 8.92062 130.047 10.4074 128.534 12.9844L123.527 21.5284C122.015 24.1451 123.086 26.5537 125.961 26.5537C127.393 26.5537 129.175 25.6319 130.898 24.2442C131.068 25.6021 132.16 26.5537 133.983 26.5537C136.927 26.5537 140.312 23.4315 143.266 20.0416C144.979 18.0593 146.271 16.3148 149.155 12.4789L149.636 13.0538C149.872 13.3232 150.018 13.6584 150.054 14.0135C150.09 14.3685 150.014 14.7258 149.836 15.0362L146.07 21.5086C144.568 24.1253 145.63 26.5339 148.504 26.5339C150.567 26.5339 152.85 24.9975 155.054 22.9161C155.054 25.3246 156.866 26.6825 159.16 26.6825C160.36 26.6298 161.532 26.3069 162.587 25.7384C163.642 25.1698 164.553 24.3707 165.249 23.4017C165.509 23.4166 165.77 23.4166 166.03 23.4017C167.698 23.3207 169.323 22.8448 170.767 22.0141C170.577 24.5614 172.449 26.4942 175.594 26.4942C179.6 26.4942 183.606 23.372 186.61 19.9822C188.323 17.9998 189.615 16.2553 192.509 12.4195L192.99 12.9944C193.224 13.265 193.368 13.6001 193.404 13.9545C193.44 14.3088 193.365 14.6656 193.19 14.9767L189.425 21.459C187.912 24.0658 188.974 26.4744 191.858 26.4744C194.742 26.4744 198.198 23.3522 201.142 19.9623C203.145 17.6628 204.948 15.1849 206.209 13.5197C204.807 17.187 205.558 23.7586 202.203 23.7586C201.831 23.7201 201.477 23.5789 201.181 23.3512C200.885 23.1234 200.66 22.8181 200.531 22.47L198.298 23.6297C198.526 24.4719 199.038 25.2122 199.747 25.7291C200.457 26.246 201.323 26.5088 202.203 26.4744C202.538 26.4714 202.873 26.4482 203.205 26.405C203.205 26.405 203.275 26.405 203.315 26.405C205.3 26.0672 207.175 25.2653 208.783 24.0658L207.561 26.1671H211.157L216.495 16.85C221.973 10.0406 224.406 10.903 222.864 13.5296L218.237 21.459C216.735 24.0658 217.797 26.4744 220.671 26.4744C222.744 26.4744 225.037 24.9381 227.23 22.8467C227.23 27.3367 233.54 28.2189 237.396 23.3918H238.187C239.508 23.3337 240.805 23.017 242.002 22.4601L235.513 33.7001H239.108L249.764 15.3534C253.77 9.99109 256.243 11.9635 255.312 13.5494L249.934 22.7773C249.353 23.7685 248.021 24.1055 247.37 22.7773L245.367 23.7685C245.596 24.6107 246.107 25.3509 246.817 25.8678C247.527 26.3847 248.393 26.6475 249.273 26.6132H249.473C254.651 26.514 258.046 23.4612 260.95 20.1011C260.828 19.8075 260.644 19.5427 260.411 19.3241C260.178 19.1055 259.901 18.9379 259.598 18.8324ZM178.478 13.8765C180.531 10.3876 184.167 10.9624 182.044 14.6199L181.523 15.502C179.81 18.3864 177.517 18.317 176.185 17.8412L178.478 13.8765ZM132.801 19.437C130.648 22.7971 128.524 24.3929 127.052 24.3929C126.261 24.3929 125.81 23.8577 126.632 22.47L131.639 13.8864C133.552 10.5957 137.358 11.4481 135.645 14.6298L132.801 19.437ZM159.63 24.2541C159.443 24.2696 159.255 24.2457 159.077 24.1839C158.9 24.1221 158.738 24.0238 158.601 23.8955C158.465 23.7673 158.358 23.6119 158.287 23.4397C158.216 23.2674 158.182 23.0822 158.188 22.8962C158.239 22.2437 158.453 21.6137 158.809 21.0626L160.061 18.8324C160.152 19.5683 160.4 20.2765 160.791 20.9091C161.181 21.5418 161.704 22.0842 162.324 22.4998C162.053 22.9873 161.662 23.3997 161.188 23.6993C160.714 23.9988 160.172 24.176 159.61 24.2145L159.63 24.2541ZM163.346 20.8148C162.855 20.4433 162.461 19.9603 162.198 19.4066C161.934 18.8528 161.81 18.2446 161.834 17.6331C161.834 15.1155 164.307 11.012 166.33 11.012C166.523 11.0145 166.713 11.0574 166.887 11.1379C167.062 11.2184 167.217 11.3346 167.343 11.4788C167.469 11.6231 167.563 11.7921 167.618 11.9747C167.673 12.1574 167.688 12.3495 167.662 12.5384C167.626 13.2889 167.391 14.0168 166.981 14.6496L163.346 20.8148ZM236.534 19.0505H236.354C235.795 19.0557 235.261 19.2797 234.869 19.6735C234.477 20.0673 234.258 20.5988 234.261 21.1518C234.265 21.5712 234.383 21.9819 234.601 22.3412V22.4106C232.919 25.2552 228.843 24.72 230.966 21.0526L233.68 16.404L235.393 13.5296C237.886 9.31709 241.321 10.9823 239.158 14.6496L236.534 19.0505Z" fill="white"/>
<path d="M5.71866 66.9583L0 72.6245L5.71665 78.2927L11.4353 72.6265L5.71866 66.9583Z" fill="white"/>
<path d="M358.235 66.9544L352.512 72.6165L358.233 78.2805L363.956 72.6184L358.235 66.9544Z" fill="white"/>
<path d="M46.8738 72.8318H48.9569V64.5852H52.2317V62.5137H46.8738V72.8318Z" fill="#636466"/>
<path d="M61.7859 74.3383V61.7702C61.7775 60.9276 61.5323 60.104 61.0777 59.3915C60.6231 58.679 59.9772 58.1058 59.2121 57.7361C59.5252 58.3512 59.6898 59.0297 59.6929 59.7184V72.2866C59.6986 72.953 59.5521 73.6121 59.2642 74.2145C58.9763 74.817 58.5545 75.3473 58.0304 75.7656C58.5426 76.2326 58.954 76.7974 59.2398 77.426C59.5255 78.0546 59.6796 78.7339 59.6929 79.4231V93.4086C59.6748 94.5991 59.1889 95.7358 58.3382 96.5777C57.4875 97.4197 56.339 97.9006 55.1361 97.9185H41.556V99.99H57.2192C58.4239 99.9696 59.5736 99.4869 60.4256 98.6437C61.2776 97.8004 61.7654 96.6626 61.7859 95.4702V81.4847C61.7654 80.794 61.6051 80.1144 61.3143 79.4862C61.0236 78.8579 60.6085 78.2938 60.0934 77.8273C60.6222 77.4089 61.049 76.878 61.342 76.2739C61.635 75.6699 61.7867 75.0083 61.7859 74.3383Z" fill="#636466"/>
<path d="M46.8738 90.5341H48.9569V82.2181H52.2317V80.1565H46.8738V90.5341Z" fill="#636466"/>
<path d="M79.9327 90.5343H82.0158V64.5852H85.2907V62.5137H79.9327V90.5343Z" fill="#636466"/>
<path d="M92.281 57.7361C92.5903 58.3525 92.7547 59.0302 92.7617 59.7184V93.4185C92.7436 94.6116 92.2567 95.7509 91.4041 96.5947C90.5516 97.4384 89.4005 97.9204 88.1949 97.9383H77.1186C76.4224 97.9378 75.7362 97.7748 75.1156 97.4625C75.4869 98.2207 76.0657 98.8605 76.7864 99.3091C77.507 99.7577 78.3403 99.9971 79.1916 99.9999H90.278C91.4827 99.9846 92.6337 99.5048 93.4865 98.6626C94.3394 97.8205 94.8266 96.6823 94.8448 95.4901V61.79C94.8398 60.9453 94.5973 60.1187 94.1445 59.4027C93.6917 58.6867 93.0465 58.1096 92.281 57.7361Z" fill="#636466"/>
<path d="M112.992 72.8318H115.075V64.5852H118.36V62.5137H112.992V72.8318Z" fill="#636466"/>
<path d="M125.25 81.792C126.025 81.4363 126.681 80.8683 127.141 80.1552C127.601 79.4421 127.844 78.6137 127.844 77.7678V61.7702C127.843 60.9233 127.602 60.0935 127.147 59.3764C126.691 58.6592 126.041 58.0838 125.27 57.7163C125.583 58.3313 125.748 59.0099 125.75 59.6987V75.6963C125.756 76.5406 125.517 77.3689 125.063 78.0836C124.609 78.7983 123.958 79.3696 123.187 79.7304L126.271 97.9185H120.583L120.933 99.9802H128.334L125.25 81.792Z" fill="#636466"/>
<path d="M115.826 80.1565H112.992V97.9184H107.674V99.99H115.075V82.2181H116.176L115.826 80.1565Z" fill="#636466"/>
<path d="M145.059 90.5343H147.152V64.5852H150.427V62.5137H145.059V90.5343Z" fill="#636466"/>
<path d="M157.407 57.7361C157.721 58.3508 157.886 59.0296 157.888 59.7184V93.4185C157.873 94.6107 157.388 95.75 156.537 96.594C155.686 97.4381 154.536 97.9203 153.331 97.9383H142.215C141.519 97.9393 140.832 97.7762 140.212 97.4625C140.582 98.2192 141.16 98.858 141.878 99.3065C142.597 99.755 143.428 99.9952 144.278 99.9999H155.384C156.588 99.9821 157.738 99.5015 158.59 98.6599C159.442 97.8182 159.93 96.6815 159.951 95.4901V61.79C159.949 60.9472 159.71 60.1215 159.261 59.4055C158.812 58.6896 158.17 58.1115 157.407 57.7361Z" fill="#636466"/>
<path d="M178.118 90.5343H180.211V64.5852H183.486V62.5137H178.118V90.5343Z" fill="#636466"/>
<path d="M190.466 57.7361C190.78 58.3508 190.945 59.0296 190.947 59.7184V93.4185C190.931 94.6107 190.447 95.75 189.596 96.594C188.745 97.4381 187.595 97.9203 186.39 97.9383H172.81V99.9999H188.473C189.677 99.9821 190.827 99.5015 191.679 98.6599C192.531 97.8182 193.019 96.6815 193.04 95.4901V61.79C193.035 60.944 192.792 60.1162 192.337 59.3999C191.882 58.6836 191.234 58.1073 190.466 57.7361Z" fill="#636466"/>
<path d="M211.557 57.2605V97.9186H206.24V99.9902H213.64V57.2605H211.557Z" fill="#636466"/>
<path d="M244.486 57.2605V97.9186H238.577L239.168 99.9902H246.579V57.2605H244.486Z" fill="#636466"/>
<path d="M231.657 79.2446V97.9184H226.349V99.99H233.75V86.4208L231.657 79.2446Z" fill="#636466"/>
<path d="M263.965 82.2679H270.084V80.1567H261.882C261.186 80.1533 260.5 79.9904 259.879 79.6809C260.243 80.4506 260.82 81.1023 261.543 81.5602C262.267 82.0182 263.106 82.2636 263.965 82.2679Z" fill="#636466"/>
<path d="M266.809 84.9639L264.716 85.4495V90.5343H266.809V84.9639Z" fill="#636466"/>
<path d="M277.064 57.7361C277.378 58.3508 277.543 59.0296 277.545 59.7184V68.3913L272.167 69.6302V72.1676L279.628 70.4628V61.7702C279.624 60.9279 279.382 60.1036 278.928 59.3906C278.475 58.6776 277.83 58.1045 277.064 57.7361Z" fill="#636466"/>
<path d="M277.064 75.3792C277.379 75.9935 277.544 76.6725 277.545 77.3615V93.3988C277.53 94.591 277.045 95.7302 276.194 96.5743C275.343 97.4183 274.193 97.9006 272.988 97.9185H261.882C261.186 97.9166 260.5 97.7536 259.879 97.4428C260.253 98.1988 260.833 98.8367 261.552 99.2849C262.272 99.7331 263.104 99.9739 263.955 99.9802H275.061C276.265 99.9624 277.415 99.4818 278.267 98.6401C279.119 97.7985 279.607 96.6617 279.628 95.4703V79.4132C279.621 78.5717 279.377 77.7488 278.924 77.0364C278.471 76.3241 277.827 75.7503 277.064 75.3792Z" fill="#636466"/>
<path d="M264.716 62.5137V72.8318H266.809V64.5852H270.084V62.5137H264.716Z" fill="#636466"/>
<path d="M298.456 80.1565H297.775V97.9184H292.467V99.99H299.868V84.597L298.456 80.1565Z" fill="#636466"/>
<path d="M313.618 57.2605H310.864L304.625 76.4993L311.535 97.9186H305.516L306.097 99.7424L306.157 99.9902H313.618L306.708 78.5609L313.618 57.2605Z" fill="#636466"/>
<path d="M331.024 57.2605V97.9186H325.716V99.9902H333.107V57.2605H331.024Z" fill="#636466"/>
<path d="M367.91 76.5179L362.189 82.1819L364.279 84.2491L370 78.5851L367.91 76.5179Z" fill="#636466"/>
<path d="M15.4074 76.5548L9.68555 82.2178L11.7746 84.2853L17.4965 78.6223L15.4074 76.5548Z" fill="#636466"/>
<path d="M55.7369 68.3912C55.7386 69.0517 55.5912 69.7043 55.3053 70.3011C55.0193 70.8979 54.6022 71.4239 54.0844 71.8405C54.598 72.307 55.011 72.8715 55.2984 73.5001C55.5858 74.1286 55.7418 74.8082 55.7569 75.498V89.4835C55.7362 90.6749 55.2482 91.8117 54.3959 92.6533C53.5436 93.495 52.394 93.9755 51.1902 93.9934H35.507V51.2637H51.1701C52.3781 51.274 53.5336 51.7535 54.3877 52.5989C55.2419 53.4443 55.7264 54.5879 55.7369 55.7834V68.3912ZM48.2658 58.6182H42.9079V68.9066H48.2658V58.6182ZM48.2658 76.2612H42.9079V86.6091H48.2658V76.2612Z" fill="white"/>
<path d="M84.2291 51.2637C85.437 51.274 86.5926 51.7535 87.4467 52.5989C88.3009 53.4443 88.7854 54.5879 88.7959 55.7835V89.4835C88.7752 90.6749 88.2871 91.8117 87.4348 92.6533C86.5826 93.495 85.4329 93.9756 84.2291 93.9934H73.1127C71.9048 93.9882 70.7478 93.5117 69.8928 92.6673C69.0378 91.823 68.5538 90.6789 68.5459 89.4835V55.7835C68.5446 55.1895 68.6618 54.6012 68.8908 54.0523C69.1199 53.5033 69.4562 53.0045 69.8805 52.5846C70.3049 52.1646 70.8088 51.8317 71.3635 51.6051C71.9181 51.3784 72.5126 51.2624 73.1127 51.2637H84.2291ZM81.3348 58.5885H75.9669V86.6091H81.3348V58.5885Z" fill="white"/>
<path d="M114.884 93.9934L111.88 76.2315H109.046V93.9934H101.645V51.2637H117.308C118.51 51.2767 119.657 51.759 120.501 52.6055C121.345 53.452 121.817 54.5942 121.815 55.7834V71.7811C121.812 72.6312 121.562 73.4627 121.095 74.1763C120.628 74.8898 119.964 75.4553 119.181 75.8053L122.265 93.9934H114.884ZM114.394 58.5885H109.026V68.9066H114.394V58.5885Z" fill="white"/>
<path d="M149.365 51.2637C150.573 51.274 151.729 51.7535 152.583 52.5989C153.437 53.4443 153.922 54.5879 153.932 55.7834V89.4835C153.912 90.6749 153.423 91.8117 152.571 92.6533C151.719 93.495 150.569 93.9755 149.365 93.9934H138.259C137.053 93.9856 135.898 93.5079 135.046 92.6639C134.193 91.8198 133.71 90.6772 133.702 89.4835V55.7834C133.701 55.1904 133.818 54.6029 134.046 54.0546C134.275 53.5062 134.61 53.0079 135.033 52.5881C135.457 52.1683 135.959 51.8352 136.513 51.6079C137.066 51.3806 137.66 51.2637 138.259 51.2637H149.365ZM146.461 58.5885H141.103V86.6091H146.461V58.5885Z" fill="white"/>
<path d="M182.424 51.2637C183.632 51.274 184.788 51.7535 185.642 52.5989C186.496 53.4443 186.981 54.5879 186.991 55.7834V89.4835C186.97 90.6749 186.482 91.8117 185.63 92.6533C184.778 93.495 183.628 93.9755 182.424 93.9934H166.761V51.2637H182.424ZM179.52 58.5885H174.162V86.6091H179.52V58.5885Z" fill="white"/>
<path d="M200.19 51.2637H207.591V93.9934H200.19V51.2637Z" fill="white"/>
<path d="M240.52 51.2637V93.9934H233.119L227.691 75.3295V93.9934H220.331V51.2637H227.671L233.099 68.7877V51.2637H240.52Z" fill="white"/>
<path d="M269.023 68.9066C270.23 68.9145 271.386 69.3935 272.239 70.2397C273.093 71.0859 273.574 72.231 273.579 73.4264V89.4835C273.561 90.674 273.075 91.8108 272.225 92.6527C271.374 93.4946 270.225 93.9755 269.023 93.9934H257.916C256.714 93.9779 255.566 93.4971 254.718 92.6541C253.87 91.8112 253.39 90.673 253.379 89.4835V80.6918L260.78 78.977V86.6091H266.148V76.2315H257.946C257.346 76.2328 256.752 76.1167 256.197 75.8901C255.642 75.6634 255.138 75.3305 254.714 74.9106C254.29 74.4906 253.953 73.9918 253.724 73.4429C253.495 72.8939 253.378 72.3056 253.379 71.7117V55.7834C253.379 54.5847 253.861 53.4351 254.717 52.5875C255.573 51.7399 256.735 51.2637 257.946 51.2637H269.053C270.26 51.2741 271.414 51.7539 272.267 52.5996C273.119 53.4452 273.601 54.5888 273.609 55.7834V64.4265L266.148 66.1313V58.5885H260.79V68.9066H269.023Z" fill="white"/>
<path d="M300.659 72.574L307.569 93.9934H300.108L300.048 93.7555L294.49 76.2315H293.809V93.9934H286.428V51.2637H293.819V68.9066H294.38L300.058 51.2637H307.58L300.659 72.574Z" fill="white"/>
<path d="M319.657 51.2637H327.058V93.9934H319.657V51.2637Z" fill="white"/>
</svg>
