<svg width="226" height="30" viewBox="0 0 226 30" fill="none" xmlns="http://www.w3.org/2000/svg">
<path d="M3.49444 9.66745L0 13.1572L3.49444 16.647L6.98887 13.1572L3.49444 9.66745Z" fill="white"/>
<path d="M218.806 9.68196L215.311 13.1704L218.806 16.6589L222.302 13.1704L218.806 9.68196Z" fill="white"/>
<path d="M28.6245 13.2824H29.9054V8.19921H31.9069V6.93091H28.6245V13.2824Z" fill="#636466"/>
<path d="M37.7314 14.211V6.47132C37.7257 5.95489 37.5769 5.45011 37.3013 5.01295C37.0257 4.57578 36.6342 4.22332 36.1702 3.99463C36.3575 4.37025 36.4567 4.78347 36.4604 5.20301V12.9826C36.4661 13.3911 36.379 13.7956 36.2056 14.1657C36.0323 14.5359 35.7773 14.862 35.4596 15.1198C35.7676 15.4113 36.0146 15.7609 36.1864 16.1483C36.3582 16.5357 36.4513 16.9532 36.4604 17.3768V25.9653C36.4501 26.6993 36.154 27.4006 35.6348 27.9206C35.1155 28.4407 34.4138 28.7387 33.6783 28.7516H25.382V29.9599H34.9493C35.6848 29.947 36.3865 29.649 36.9057 29.129C37.425 28.609 37.7211 27.9077 37.7314 27.1737V18.6151C37.7234 18.1914 37.6308 17.7735 37.4589 17.386C37.2871 16.9984 37.0395 16.649 36.7306 16.3581C37.0485 16.0983 37.3035 15.7704 37.4768 15.3986C37.6501 15.0269 37.7371 14.6209 37.7314 14.211Z" fill="#636466"/>
<path d="M28.6245 24.1778H29.9054V19.0647H31.9069V17.7864H28.6245V24.1778Z" fill="#636466"/>
<path d="M48.8198 24.1779H50.0908V8.19921H52.0923V6.93091H48.8198V24.1779Z" fill="#636466"/>
<path d="M56.3555 3.99463C56.5508 4.36773 56.6538 4.78208 56.6557 5.20301V25.9653C56.6454 26.701 56.3479 27.4038 55.8265 27.9241C55.3051 28.4444 54.6009 28.7412 53.8636 28.7516H47.0885C46.6639 28.746 46.2463 28.6435 45.8676 28.452C46.1035 28.9079 46.461 29.29 46.9007 29.5561C47.3404 29.8222 47.8452 29.962 48.3594 29.9599H55.1446C55.8801 29.947 56.5818 29.649 57.1011 29.129C57.6203 28.609 57.9164 27.9077 57.9267 27.1737V6.47132C57.9213 5.95358 57.7714 5.4476 57.4939 5.01013C57.2163 4.57266 56.8222 4.22101 56.3555 3.99463Z" fill="#636466"/>
<path d="M69.0051 13.2824H70.2861V8.19921H72.2876V6.93091H69.0051V13.2824Z" fill="#636466"/>
<path d="M76.5008 18.7949C76.9708 18.5738 77.3675 18.2231 77.6441 17.7842C77.9208 17.3453 78.0658 16.8366 78.062 16.3182V6.47132C78.0573 5.95594 77.9099 5.45188 77.6362 5.01482C77.3625 4.57776 76.973 4.2247 76.5108 3.99463C76.6985 4.37725 76.7977 4.79702 76.8011 5.22299V15.0798C76.8031 15.6004 76.6551 16.1107 76.3748 16.5498C76.0944 16.9889 75.6936 17.3383 75.2199 17.5565L77.1113 28.7615H73.6487L73.8588 29.9599H78.3823L76.5008 18.7949Z" fill="#636466"/>
<path d="M70.7465 17.7864H69.0051V28.7318H65.7627V30.0001H70.2861V19.0647H70.9566L70.7465 17.7864Z" fill="#636466"/>
<path d="M88.6 24.1779H89.871V8.19921H91.8725V6.93091H88.6V24.1779Z" fill="#636466"/>
<path d="M96.1357 3.99463C96.3265 4.36943 96.4292 4.78269 96.436 5.20301V25.9653C96.4256 26.701 96.1281 27.4038 95.6067 27.9241C95.0853 28.4444 94.3811 28.7412 93.6438 28.7516H86.8687C86.4441 28.746 86.0265 28.6435 85.6478 28.452C85.8837 28.9079 86.2412 29.29 86.6809 29.5561C87.1206 29.8222 87.6254 29.962 88.1397 29.9599H94.9148C95.6521 29.9496 96.3563 29.6527 96.8777 29.1324C97.3991 28.6121 97.6966 27.9094 97.7069 27.1737V6.47132C97.7015 5.95358 97.5516 5.4476 97.2741 5.01013C96.9966 4.57266 96.6024 4.22101 96.1357 3.99463Z" fill="#636466"/>
<path d="M108.785 24.1779H110.066V8.19921H112.068V6.93091H108.785V24.1779Z" fill="#636466"/>
<path d="M116.331 3.99463C116.518 4.37025 116.618 4.78347 116.621 5.20301V25.9653C116.611 26.6993 116.315 27.4006 115.796 27.9206C115.276 28.4407 114.575 28.7387 113.839 28.7516H105.543V29.9599H115.09C115.826 29.9496 116.53 29.6524 117.049 29.1318C117.569 28.6112 117.864 27.9085 117.872 27.1737V6.47132C117.868 5.95698 117.723 5.45365 117.451 5.01669C117.179 4.57973 116.791 4.22607 116.331 3.99463Z" fill="#636466"/>
<path d="M129.201 3.68506V28.7316H125.958V29.9999H130.482V3.68506H129.201Z" fill="#636466"/>
<path d="M149.326 3.68506V28.7316H145.703L146.074 29.9999H150.597V3.68506H149.326Z" fill="#636466"/>
<path d="M141.49 17.2271V28.7317H138.238V30H142.761V21.6511L141.49 17.2271Z" fill="#636466"/>
<path d="M161.215 19.0647H164.958V17.7864H159.954C159.53 17.784 159.113 17.6849 158.733 17.4968C158.957 17.9647 159.309 18.36 159.748 18.6373C160.187 18.9147 160.696 19.0628 161.215 19.0647Z" fill="#636466"/>
<path d="M162.946 20.7524L161.676 21.052V24.1779H162.946V20.7524Z" fill="#636466"/>
<path d="M169.221 3.99463C169.409 4.37025 169.508 4.78347 169.511 5.20301V10.5459L166.229 11.3049V12.8728L170.782 11.8142V6.47132C170.777 5.95489 170.628 5.45011 170.352 5.01295C170.077 4.57578 169.685 4.22332 169.221 3.99463Z" fill="#636466"/>
<path d="M169.221 14.8501C169.41 15.2252 169.509 15.6388 169.512 16.0585V25.9653C169.501 26.701 169.204 27.4037 168.682 27.924C168.161 28.4443 167.457 28.7412 166.719 28.7515H159.944C159.523 28.7469 159.108 28.6443 158.733 28.4519C158.967 28.9078 159.322 29.2902 159.76 29.5564C160.199 29.8227 160.702 29.9623 161.215 29.9599H168C168.736 29.947 169.438 29.649 169.957 29.129C170.476 28.6089 170.772 27.9077 170.782 27.1736V17.3368C170.78 16.8184 170.632 16.311 170.357 15.8717C170.081 15.4324 169.688 15.0786 169.221 14.8501Z" fill="#636466"/>
<path d="M161.676 6.93091V13.2824H162.947V8.19921H164.958V6.93091H161.676Z" fill="#636466"/>
<path d="M182.281 17.7864H181.871V28.7318H178.618V30.0001H183.142V20.5227L182.281 17.7864Z" fill="#636466"/>
<path d="M191.538 3.68506H189.857L186.054 15.5292L190.267 28.7316H186.594L186.945 29.8501L186.985 29.9999H191.538L187.325 16.8075L191.538 3.68506Z" fill="#636466"/>
<path d="M202.176 3.68506V28.7316H198.924V29.9999H203.447V3.68506H202.176Z" fill="#636466"/>
<path d="M224.726 15.5912L221.231 19.0796L222.504 20.3507L226 16.8622L224.726 15.5912Z" fill="#636466"/>
<path d="M9.42279 15.5711L5.92702 19.0596L7.20078 20.3307L10.6965 16.8422L9.42279 15.5711Z" fill="#636466"/>
<path d="M34.0286 10.5259C34.0342 10.9344 33.9471 11.3389 33.7738 11.709C33.6005 12.0792 33.3454 12.4053 33.0278 12.6631C33.3358 12.9546 33.5828 13.3042 33.7546 13.6916C33.9263 14.079 34.0195 14.4965 34.0286 14.9201V23.5286C34.0183 24.2626 33.7222 24.9639 33.2029 25.4839C32.6837 26.0039 31.982 26.302 31.2464 26.3148H21.6892V0H31.2565C31.9927 0.00786754 32.6962 0.304576 33.215 0.825972C33.7337 1.34737 34.026 2.05156 34.0286 2.78628V10.5259ZM29.4751 4.53394H26.2026V10.8855H29.4851L29.4751 4.53394ZM29.4751 15.3894H26.2026V21.7809H29.4851L29.4751 15.3894Z" fill="white"/>
<path d="M51.4418 1.80282e-05C52.1815 0.00264963 52.8901 0.297048 53.4132 0.819007C53.9362 1.34097 54.2313 2.04814 54.2339 2.7863V23.5286C54.2236 24.2643 53.9261 24.9671 53.4047 25.4874C52.8833 26.0077 52.1791 26.3045 51.4418 26.3149H44.6666C43.9269 26.3122 43.2183 26.0178 42.6952 25.4959C42.1722 24.9739 41.8772 24.2667 41.8745 23.5286V2.7863C41.8732 2.42003 41.9445 2.05712 42.0844 1.71847C42.2242 1.37983 42.4298 1.07215 42.6894 0.813157C42.9489 0.554164 43.2572 0.348979 43.5966 0.209422C43.9359 0.0698664 44.2996 -0.00130187 44.6666 1.80282e-05H51.4418ZM49.6704 4.51399H46.398V21.761H49.6704V4.51399Z" fill="white"/>
<path d="M70.166 26.3148L68.3246 15.3295H66.5833V26.3148H62.0499V0H71.6171C72.3515 0.00790398 73.053 0.305261 73.5685 0.82722C74.0841 1.34918 74.3719 2.05339 74.3692 2.78628V12.6331C74.3691 13.1546 74.2191 13.6651 73.9371 14.104C73.6551 14.543 73.2528 14.8921 72.778 15.1098L74.6694 26.3148H70.166ZM69.8658 4.51397H66.5833V10.8655H69.8658V4.51397Z" fill="white"/>
<path d="M91.222 1.80282e-05C91.9617 0.00264963 92.6704 0.297048 93.1934 0.819007C93.7165 1.34097 94.0115 2.04814 94.0141 2.7863V23.5286C94.0038 24.2643 93.7063 24.9671 93.1849 25.4874C92.6635 26.0077 91.9593 26.3045 91.222 26.3149H84.4469C83.7072 26.3122 82.9985 26.0178 82.4754 25.4959C81.9524 24.9739 81.6574 24.2667 81.6547 23.5286V2.7863C81.6534 2.42003 81.7247 2.05712 81.8646 1.71847C82.0044 1.37983 82.21 1.07215 82.4696 0.813157C82.7291 0.554164 83.0374 0.348979 83.3768 0.209422C83.7162 0.0698664 84.0798 -0.00130187 84.4469 1.80282e-05H91.222ZM89.4507 4.51399H86.1782V21.761H89.4507V4.51399Z" fill="white"/>
<path d="M111.417 0C112.155 0.00525567 112.861 0.300812 113.382 0.822489C113.903 1.34417 114.197 2.04984 114.199 2.78628V23.5286C114.189 24.2626 113.893 24.9639 113.374 25.4839C112.855 26.0039 112.153 26.302 111.417 26.3148H101.85V0H111.417ZM109.646 4.51397H106.364V21.7609H109.646V4.51397Z" fill="white"/>
<path d="M122.266 0H126.789V26.3148H122.266V0Z" fill="white"/>
<path d="M146.894 0V26.3148H142.381L139.108 14.8102V26.3148H134.585V0H139.068L142.381 10.7856V0H146.894Z" fill="white"/>
<path d="M164.308 10.8656C164.676 10.8629 165.04 10.9326 165.381 11.0707C165.722 11.2088 166.033 11.4126 166.295 11.6704C166.557 11.9282 166.765 12.235 166.909 12.5733C167.052 12.9115 167.127 13.2746 167.13 13.6418V23.5286C167.119 24.2627 166.823 24.964 166.304 25.484C165.785 26.004 165.083 26.302 164.348 26.3149H157.522C156.784 26.3097 156.078 26.0141 155.557 25.4924C155.037 24.9708 154.743 24.2651 154.74 23.5286V18.1159L159.254 17.0673V21.761H162.536V15.3695H157.532C157.167 15.3709 156.804 15.3 156.466 15.1609C156.128 15.0218 155.821 14.8174 155.562 14.5593C155.304 14.3013 155.099 13.9947 154.959 13.6573C154.82 13.3198 154.749 12.9582 154.75 12.5932V2.78635C154.749 2.42176 154.82 2.06048 154.958 1.72315C155.097 1.38581 155.301 1.07902 155.558 0.820285C155.815 0.561554 156.121 0.355954 156.458 0.215221C156.796 0.0744885 157.157 0.00138058 157.522 7.14658e-05H164.308C164.676 -0.00255984 165.042 0.0674947 165.384 0.206217C165.725 0.34494 166.036 0.549601 166.298 0.808462C166.561 1.06732 166.769 1.37529 166.912 1.7147C167.054 2.05412 167.128 2.41829 167.13 2.78635V8.11923L162.576 9.11789V4.51404H159.294V10.8656H164.308Z" fill="white"/>
<path d="M183.632 13.1225L187.845 26.3148H183.292V26.1651L179.899 15.3695H179.489V26.3548H174.966V0H179.489V10.8655H179.829L183.252 0H187.845L183.632 13.1225Z" fill="white"/>
<path d="M195.231 0H199.754V26.3148H195.231V0Z" fill="white"/>
</svg>
