<svg width="34" height="38" fill="none" xmlns="http://www.w3.org/2000/svg"><path d="M33.104 11.875c.493 0 .896-.4.896-.89v-2.97c0-.49-.403-.89-.896-.89H31.61V3.562C31.61 1.597 30.005 0 28.026 0H4.128C2.15 0 .544 1.596.544 3.563v30.875C.544 36.404 2.149 38 4.128 38h23.898c1.979 0 3.584-1.596 3.584-3.563v-3.562h1.494c.493 0 .896-.4.896-.89v-2.97c0-.49-.403-.89-.896-.89H31.61v-4.75h1.494c.493 0 .896-.4.896-.89v-2.97c0-.49-.403-.89-.896-.89H31.61v-4.75h1.494ZM16.077 9.5c2.636 0 4.78 2.13 4.78 4.75S18.712 19 16.076 19s-4.78-2.13-4.78-4.75 2.144-4.75 4.78-4.75Zm8.364 17.575c0 .787-.747 1.425-1.673 1.425H9.386c-.926 0-1.673-.638-1.673-1.425V25.65c0-2.36 2.248-4.275 5.018-4.275h.374c.918.378 1.919.594 2.972.594a7.749 7.749 0 0 0 2.972-.594h.374c2.77 0 5.018 1.915 5.018 4.275v1.425Z" fill="#316099"/></svg>