<svg width="22" height="16" viewBox="0 0 22 16" fill="none" xmlns="http://www.w3.org/2000/svg">
<path d="M21.7001 0.284317C21.5105 0.102077 21.2557 0 20.9903 0C20.7249 0 20.47 0.102077 20.2805 0.284317L6.70324 13.6022L1.73472 8.72859C1.64045 8.63536 1.52831 8.56137 1.40474 8.51087C1.28118 8.46038 1.14865 8.43438 1.01479 8.43438C0.88093 8.43438 0.748397 8.46038 0.624833 8.51087C0.50127 8.56137 0.389122 8.63536 0.294859 8.72859C0.106004 8.91494 0 9.16703 0 9.42979C0 9.69255 0.106004 9.94464 0.294859 10.131L5.98331 15.7108C6.17329 15.896 6.43029 16 6.69817 16C6.96605 16 7.22304 15.896 7.41303 15.7108L21.7001 1.69667C21.7951 1.60421 21.8705 1.4942 21.922 1.373C21.9735 1.2518 22 1.12179 22 0.990493C22 0.859192 21.9735 0.729191 21.922 0.607988C21.8705 0.486785 21.7951 0.37678 21.7001 0.284317Z" fill="black"/>
</svg>
